<svg width="38" height="39" viewBox="0 0 38 39" fill="none" xmlns="http://www.w3.org/2000/svg">
<g filter="url(#filter0_bi_301_2774)">
<rect x="3" y="3.5" width="32" height="32" rx="16" fill="url(#paint0_linear_301_2774)"/>
<rect x="3" y="3.5" width="32" height="32" rx="16" fill="black" fill-opacity="0.6"/>
<path fill-rule="evenodd" clip-rule="evenodd" d="M23.8099 21.538C23.7688 21.479 23.7274 21.4213 23.6862 21.3639C23.3513 20.8971 23.0322 20.4521 23.0322 19.5603V16.2356C23.0322 16.12 23.0328 16.0052 23.0335 15.8913C23.0408 14.6166 23.0474 13.4534 22.1281 12.5635C21.3397 11.7774 20.0301 11.5 19.0286 11.5C17.0698 11.5 14.8846 12.2576 14.4264 14.7681C14.3779 15.0348 14.5646 15.1743 14.734 15.2136L16.7285 15.4374C16.9153 15.4276 17.0502 15.2372 17.0863 15.0455C17.2574 14.1804 17.956 13.7648 18.741 13.7648C19.1643 13.7648 19.6451 13.9253 19.8956 14.3191C20.154 14.7117 20.1499 15.2359 20.1462 15.7047C20.1458 15.7593 20.1454 15.8131 20.1454 15.8659V16.1446C19.9603 16.1661 19.7664 16.1864 19.5667 16.2073C18.4789 16.3214 17.2185 16.4535 16.2746 16.8826C14.9859 17.4614 14.0809 18.6391 14.0809 20.3701C14.0809 22.5885 15.4275 23.6975 17.1613 23.6975C18.6244 23.6975 19.4251 23.3394 20.5539 22.1462C20.6103 22.2309 20.6609 22.309 20.7087 22.3826C20.9779 22.7978 21.1537 23.0687 21.7337 23.5691C21.8868 23.6538 22.0894 23.6506 22.2251 23.5231C22.6361 23.1441 23.3824 22.4717 23.8031 22.1061C23.9712 21.9629 23.9414 21.7315 23.8099 21.538ZM19.7604 20.5792C19.4337 21.1812 18.9133 21.5495 18.3351 21.5495C17.5467 21.5495 17.0838 20.9253 17.0838 20.0018C17.0838 18.1838 18.6572 17.8538 20.145 17.8538C20.145 17.9626 20.146 18.072 20.1469 18.1816C20.1542 19.0046 20.1617 19.8439 19.7604 20.5792Z" fill="white"/>
<path d="M26.2699 25.1659C24.2997 26.6894 21.4425 27.5 18.9818 27.5C15.5345 27.5 12.4293 26.1645 10.0796 23.9412C9.89528 23.7664 10.0598 23.5277 10.2812 23.6634C12.8167 25.2097 15.9516 26.1405 19.1893 26.1405C21.3738 26.1405 23.7746 25.6658 25.9836 24.6832C26.3168 24.5355 26.5961 24.9139 26.2699 25.1659Z" fill="white"/>
<path d="M24.7891 24.1047C25.4234 24.0244 26.8379 23.8467 27.0897 24.1845C27.3419 24.522 26.8123 25.9099 26.5736 26.5355L26.5719 26.54C26.5001 26.7287 26.6545 26.804 26.8172 26.661C27.8745 25.7346 28.1477 23.7928 27.931 23.5114C27.7161 23.2339 25.8677 22.9936 24.7398 23.8239C24.5664 23.9527 24.5961 24.1282 24.7891 24.1047Z" fill="white"/>
<rect x="1.69" y="2.19" width="34.62" height="34.62" rx="17.31" stroke="url(#paint1_linear_301_2774)" stroke-width="2.62"/>
</g>
<defs>
<filter id="filter0_bi_301_2774" x="-7.62" y="-7.12" width="53.24" height="53.24" filterUnits="userSpaceOnUse" color-interpolation-filters="sRGB">
<feFlood flood-opacity="0" result="BackgroundImageFix"/>
<feGaussianBlur in="BackgroundImageFix" stdDeviation="4"/>
<feComposite in2="SourceAlpha" operator="in" result="effect1_backgroundBlur_301_2774"/>
<feBlend mode="normal" in="SourceGraphic" in2="effect1_backgroundBlur_301_2774" result="shape"/>
<feColorMatrix in="SourceAlpha" type="matrix" values="0 0 0 0 0 0 0 0 0 0 0 0 0 0 0 0 0 0 127 0" result="hardAlpha"/>
<feOffset dx="-1.618" dy="-1.618"/>
<feGaussianBlur stdDeviation="2.11958"/>
<feComposite in2="hardAlpha" operator="arithmetic" k2="-1" k3="1"/>
<feColorMatrix type="matrix" values="0 0 0 0 0.980392 0 0 0 0 0.980392 0 0 0 0 0.980392 0 0 0 0.22 0"/>
<feBlend mode="normal" in2="shape" result="effect2_innerShadow_301_2774"/>
</filter>
<linearGradient id="paint0_linear_301_2774" x1="35" y1="3.5" x2="20.388" y2="42.0848" gradientUnits="userSpaceOnUse">
<stop stop-color="#D6D3C2" stop-opacity="0.2"/>
<stop offset="1" stop-color="#5C5C5C" stop-opacity="0.14"/>
</linearGradient>
<linearGradient id="paint1_linear_301_2774" x1="35" y1="3.5" x2="20.388" y2="42.0848" gradientUnits="userSpaceOnUse">
<stop stop-color="#999999"/>
<stop offset="1" stop-color="#141414"/>
</linearGradient>
</defs>
</svg>
