<svg width="36" height="36" viewBox="0 0 36 36" fill="none" xmlns="http://www.w3.org/2000/svg">
<g filter="url(#filter0_i_301_4228)">
<path d="M21.8633 8.23056C22.3411 7.41746 22.0555 6.37893 21.2254 5.91094C20.3953 5.44296 19.3351 5.72273 18.8573 6.53583L18.024 7.95405L17.1907 6.53583C16.713 5.72273 15.6528 5.44296 14.8227 5.91094C13.9926 6.37893 13.707 7.41746 14.1847 8.23056L16.0232 11.3594L10.2082 21.2558H5.52359C4.56584 21.2558 3.78943 22.0164 3.78943 22.9545C3.78943 23.8927 4.56584 24.6532 5.52359 24.6532H21.8407C21.9837 24.285 22.1343 23.6532 21.9741 23.0725C21.7332 22.1995 20.8421 21.2558 19.3488 21.2558H14.21L21.8633 8.23056Z" fill="url(#paint0_linear_301_4228)"/>
<path d="M21.8633 8.23056C22.3411 7.41746 22.0555 6.37893 21.2254 5.91094C20.3953 5.44296 19.3351 5.72273 18.8573 6.53583L18.024 7.95405L17.1907 6.53583C16.713 5.72273 15.6528 5.44296 14.8227 5.91094C13.9926 6.37893 13.707 7.41746 14.1847 8.23056L16.0232 11.3594L10.2082 21.2558H5.52359C4.56584 21.2558 3.78943 22.0164 3.78943 22.9545C3.78943 23.8927 4.56584 24.6532 5.52359 24.6532H21.8407C21.9837 24.285 22.1343 23.6532 21.9741 23.0725C21.7332 22.1995 20.8421 21.2558 19.3488 21.2558H14.21L21.8633 8.23056Z" fill="black" fill-opacity="0.6"/>
<path d="M11.1101 26.5316C10.8142 26.2098 10.1513 25.6954 9.56998 25.5261C8.68364 25.268 8.01173 25.43 7.67273 25.571L6.38099 27.7695C5.90323 28.5826 6.18884 29.6211 7.01893 30.0891C7.84901 30.5571 8.90922 30.2773 9.38698 29.4642L11.1101 26.5316Z" fill="url(#paint1_linear_301_4228)"/>
<path d="M11.1101 26.5316C10.8142 26.2098 10.1513 25.6954 9.56998 25.5261C8.68364 25.268 8.01173 25.43 7.67273 25.571L6.38099 27.7695C5.90323 28.5826 6.18884 29.6211 7.01893 30.0891C7.84901 30.5571 8.90922 30.2773 9.38698 29.4642L11.1101 26.5316Z" fill="black" fill-opacity="0.6"/>
<path d="M27.8361 24.6532H30.4763C31.4341 24.6532 32.2105 23.8927 32.2105 22.9545C32.2105 22.0164 31.4341 21.2558 30.4763 21.2558H25.8398L20.6171 12.3672C20.2291 12.7283 19.4852 13.651 19.3728 14.697C19.2283 16.0418 19.4451 17.1743 20.0954 18.2831C22.2817 22.0112 24.4715 25.7377 26.6611 29.4642C27.1389 30.2773 28.1991 30.5571 29.0292 30.0891C29.8592 29.6211 30.1448 28.5826 29.6671 27.7695L27.8361 24.6532Z" fill="url(#paint2_linear_301_4228)"/>
<path d="M27.8361 24.6532H30.4763C31.4341 24.6532 32.2105 23.8927 32.2105 22.9545C32.2105 22.0164 31.4341 21.2558 30.4763 21.2558H25.8398L20.6171 12.3672C20.2291 12.7283 19.4852 13.651 19.3728 14.697C19.2283 16.0418 19.4451 17.1743 20.0954 18.2831C22.2817 22.0112 24.4715 25.7377 26.6611 29.4642C27.1389 30.2773 28.1991 30.5571 29.0292 30.0891C29.8592 29.6211 30.1448 28.5826 29.6671 27.7695L27.8361 24.6532Z" fill="black" fill-opacity="0.6"/>
</g>
<path d="M17.0756 8.51131L18.024 10.1254L18.9724 8.51131L19.8057 7.09309C19.9743 6.80618 20.3685 6.6906 20.6852 6.86915C20.989 7.04045 21.0755 7.40013 20.9149 7.6733L13.2616 20.6986L12.2878 22.3558H14.21H19.3488C20.3203 22.3558 20.7972 22.9427 20.9137 23.3651C20.9286 23.4192 20.9383 23.4823 20.9417 23.5532H5.52359C5.15181 23.5532 4.88943 23.2638 4.88943 22.9545C4.88943 22.6452 5.15181 22.3558 5.52359 22.3558H10.2082H10.8377L11.1566 21.8131L16.9716 11.9166L17.299 11.3594L16.9716 10.8021L15.1331 7.6733C14.9726 7.40013 15.0591 7.04045 15.3629 6.86915C15.6796 6.6906 16.0737 6.80618 16.2423 7.09309L17.0756 8.51131ZM9.26242 26.5823C9.36769 26.6129 9.51548 26.6821 9.68437 26.7867L8.43858 28.9069C8.27 29.1938 7.87585 29.3094 7.55915 29.1309C7.25531 28.9596 7.16888 28.5999 7.32939 28.3267L6.38099 27.7695L7.32939 28.3267L8.39848 26.5072C8.60685 26.477 8.8999 26.4767 9.26242 26.5823ZM20.4665 14.8145C20.4799 14.6898 20.5098 14.5608 20.5535 14.4303L24.8914 21.8131L25.2103 22.3558H25.8398H30.4763C30.8481 22.3558 31.1105 22.6452 31.1105 22.9545C31.1105 23.2638 30.8481 23.5532 30.4763 23.5532H27.8361H25.9139L26.8877 25.2105L28.7187 28.3267C28.8792 28.5999 28.7928 28.9596 28.4889 29.1309C28.1722 29.3094 27.7781 29.1938 27.6095 28.9069L27.3586 28.4799C25.2526 24.8957 23.1468 21.3119 21.0443 17.7267L20.0954 18.2831L21.0443 17.7266C20.5248 16.8409 20.3446 15.9488 20.4665 14.8145L19.3728 14.697L20.4665 14.8145Z" stroke="url(#paint3_linear_301_4228)" stroke-width="2.2"/>
<defs>
<filter id="filter0_i_301_4228" x="1.6061" y="4.33422" width="30.6044" height="25.9816" filterUnits="userSpaceOnUse" color-interpolation-filters="sRGB">
<feFlood flood-opacity="0" result="BackgroundImageFix"/>
<feBlend mode="normal" in="SourceGraphic" in2="BackgroundImageFix" result="shape"/>
<feColorMatrix in="SourceAlpha" type="matrix" values="0 0 0 0 0 0 0 0 0 0 0 0 0 0 0 0 0 0 127 0" result="hardAlpha"/>
<feOffset dx="-2.18333" dy="-1.35"/>
<feGaussianBlur stdDeviation="1.93333"/>
<feComposite in2="hardAlpha" operator="arithmetic" k2="-1" k3="1"/>
<feColorMatrix type="matrix" values="0 0 0 0 0.980392 0 0 0 0 0.980392 0 0 0 0 0.980392 0 0 0 0.22 0"/>
<feBlend mode="normal" in2="shape" result="effect1_innerShadow_301_4228"/>
</filter>
<linearGradient id="paint0_linear_301_4228" x1="32.2105" y1="5.68422" x2="22.1486" y2="36.3414" gradientUnits="userSpaceOnUse">
<stop stop-color="#D6D3C2" stop-opacity="0.2"/>
<stop offset="1" stop-color="#5C5C5C" stop-opacity="0.14"/>
</linearGradient>
<linearGradient id="paint1_linear_301_4228" x1="32.2105" y1="5.68422" x2="22.1486" y2="36.3414" gradientUnits="userSpaceOnUse">
<stop stop-color="#D6D3C2" stop-opacity="0.2"/>
<stop offset="1" stop-color="#5C5C5C" stop-opacity="0.14"/>
</linearGradient>
<linearGradient id="paint2_linear_301_4228" x1="32.2105" y1="5.68422" x2="22.1486" y2="36.3414" gradientUnits="userSpaceOnUse">
<stop stop-color="#D6D3C2" stop-opacity="0.2"/>
<stop offset="1" stop-color="#5C5C5C" stop-opacity="0.14"/>
</linearGradient>
<linearGradient id="paint3_linear_301_4228" x1="32.2105" y1="5.68422" x2="22.1486" y2="36.3414" gradientUnits="userSpaceOnUse">
<stop stop-color="#999999"/>
<stop offset="1" stop-color="#141414"/>
</linearGradient>
</defs>
</svg>
