<svg width="64" height="64" viewBox="0 0 64 64" fill="none" xmlns="http://www.w3.org/2000/svg">
<g id="Discount">
<g id="Discount_2" filter="url(#filter0_i_301_2911)">
<path id="Discount_3" fill-rule="evenodd" clip-rule="evenodd" d="M10.5233 34.8656C8.94999 33.2917 8.94999 30.7309 10.5233 29.133L12.4433 27.2097C13.9633 25.6919 14.79 23.6912 14.79 21.5545V18.807C14.79 16.5929 16.6033 14.779 18.8167 14.779H21.5633C23.6967 14.779 25.6967 13.9521 27.2167 12.4316L29.1367 10.5109C30.6833 8.96377 33.2167 8.9371 34.8167 10.4603C34.8297 10.472 34.8363 10.478 34.8428 10.4841C34.8497 10.4906 34.8563 10.4973 34.87 10.5109L34.87 10.5109C35.2167 10.831 35.6967 11.0445 36.23 11.0445C37.3233 11.0445 38.23 10.1642 38.23 9.0438C38.23 8.51029 38.0167 8.03014 37.67 7.65668C37.5633 7.54998 37.4567 7.46995 37.35 7.38993C34.2033 4.53566 29.3233 4.66904 26.31 7.68602L24.39 9.60398C23.6433 10.3536 22.63 10.7777 21.5633 10.7777H18.8167C14.39 10.7777 10.79 14.3789 10.79 18.807V21.5545C10.79 22.6216 10.3633 23.6352 9.61666 24.3821L7.66999 26.3294C4.54999 29.4771 4.54999 34.5748 7.69666 37.6958C8.09666 38.0933 8.60332 38.28 9.10999 38.28C9.61666 38.28 10.15 38.0666 10.5233 37.6958C11.2967 36.8929 11.2967 35.6391 10.5233 34.8656ZM54.3862 24.3899L56.3008 26.3052C57.8181 27.8124 58.6581 29.8264 58.6661 31.9737C58.6715 34.1211 57.8421 36.1404 56.3302 37.6609L54.3835 39.6082C53.6422 40.3551 53.2155 41.3875 53.2128 42.4465V45.1861C53.2128 49.6142 49.6101 53.218 45.1835 53.218C44.0795 53.218 43.1835 52.3217 43.1835 51.2174C43.1835 50.113 44.0795 49.2167 45.1835 49.2167C47.4075 49.2167 49.2128 47.4081 49.2128 45.1861V42.4438C49.2155 40.3045 50.0448 38.2931 51.5515 36.7833L53.4715 34.86C54.2528 34.0758 54.6688 33.0621 54.6661 31.9844C54.6635 30.9094 54.2395 29.8984 53.4768 29.1382L51.5541 27.2149C50.0448 25.6944 49.2155 23.6857 49.2128 21.5517V18.8068C49.2128 16.5821 47.4075 14.7761 45.1835 14.7761C44.0795 14.7761 43.1835 13.8798 43.1835 12.7755C43.1835 11.6711 44.0795 10.7748 45.1835 10.7748C49.6101 10.7748 53.2128 14.376 53.2128 18.8068V21.549C53.2155 22.6187 53.6315 23.6297 54.3862 24.3899ZM31.9979 54.6706C33.0912 54.7133 34.0939 54.2518 34.8566 53.4809C35.6352 52.702 36.9019 52.694 37.6859 53.4729C38.4672 54.2545 38.4699 55.5216 37.6912 56.3058C36.1259 57.8797 34.0619 58.6666 31.9979 58.6666C29.9499 58.6666 27.8992 57.8903 26.3365 56.3352L24.3899 54.3879C23.6352 53.6383 22.6246 53.2195 21.5499 53.2168H18.8139C14.3872 53.2168 10.7845 49.6156 10.7845 45.1875C10.7845 44.0832 11.6805 43.1869 12.7845 43.1869C13.8885 43.1869 14.7845 44.0832 14.7845 45.1875C14.7845 47.4096 16.5899 49.2155 18.8139 49.2155H21.5552C23.6912 49.2182 25.7019 50.0504 27.2139 51.5523L29.1366 53.4782C29.9152 54.2545 30.9259 54.6706 31.9979 54.6706ZM23.7318 37.4366C22.9505 38.2182 22.9505 39.4853 23.7318 40.2668C24.1212 40.6563 24.6332 40.851 25.1452 40.851C25.6572 40.851 26.1692 40.6563 26.5612 40.2668L40.2652 26.5557C41.0465 25.7741 41.0465 24.507 40.2652 23.7255C39.4838 22.9439 38.2198 22.9439 37.4385 23.7255L23.7318 37.4366ZM25.1214 22.8672C26.3987 22.8672 27.436 23.9049 27.436 25.1826C27.436 26.4604 26.3987 27.4954 25.1214 27.4954C23.844 27.4954 22.8067 26.4604 22.8067 25.1826C22.8067 23.9049 23.844 22.8672 25.1214 22.8672ZM38.8523 36.5435C40.1296 36.5435 41.167 37.5812 41.167 38.859C41.167 40.1367 40.1296 41.1744 38.8523 41.1744C37.5723 41.1744 36.5376 40.1367 36.5376 38.859C36.5376 37.5812 37.5723 36.5435 38.8523 36.5435Z" fill="url(#paint0_linear_301_2911)"/>
</g>
</g>
<defs>
<filter id="filter0_i_301_2911" x="5.33331" y="5.33331" width="53.3329" height="53.3333" filterUnits="userSpaceOnUse" color-interpolation-filters="sRGB">
<feFlood flood-opacity="0" result="BackgroundImageFix"/>
<feBlend mode="normal" in="SourceGraphic" in2="BackgroundImageFix" result="shape"/>
<feColorMatrix in="SourceAlpha" type="matrix" values="0 0 0 0 0 0 0 0 0 0 0 0 0 0 0 0 0 0 127 0" result="hardAlpha"/>
<feOffset dx="-1.62" dy="1.62"/>
<feComposite in2="hardAlpha" operator="arithmetic" k2="-1" k3="1"/>
<feColorMatrix type="matrix" values="0 0 0 0 0.68 0 0 0 0 0.656 0 0 0 0 0.52 0 0 0 1 0"/>
<feBlend mode="normal" in2="shape" result="effect1_innerShadow_301_2911"/>
</filter>
<linearGradient id="paint0_linear_301_2911" x1="5.33331" y1="58.6666" x2="69.3775" y2="26.9889" gradientUnits="userSpaceOnUse">
<stop stop-color="#ADA785"/>
<stop offset="1" stop-color="#D6D3C2"/>
</linearGradient>
</defs>
</svg>
