<svg width="64" height="64" viewBox="0 0 64 64" fill="none" xmlns="http://www.w3.org/2000/svg">
<g id="Activity">
<g id="Activity_2" filter="url(#filter0_i_301_2933)">
<path id="Activity_3" fill-rule="evenodd" clip-rule="evenodd" d="M51.7376 19.1607C54.5422 19.1606 57.0701 17.4736 58.1412 14.8873C59.2123 12.301 58.6151 9.32555 56.6286 7.35016C54.6421 5.37476 51.658 4.78908 49.0696 5.86658C46.4813 6.94408 44.7992 9.47222 44.8087 12.2706C44.8217 16.0797 47.9201 19.1607 51.7376 19.1607ZM51.7374 9.28397C53.3904 9.28397 54.7305 10.6211 54.7305 12.2704C54.7305 13.9198 53.3904 15.2569 51.7374 15.2569C50.0844 15.2569 48.7443 13.9198 48.7443 12.2704C48.7443 10.6211 50.0844 9.28397 51.7374 9.28397ZM9.26914 42.6523C9.26914 50.4594 13.582 54.7392 21.3828 54.7392C22.4708 54.7519 23.3498 55.6289 23.3625 56.7145C23.3496 57.7963 22.467 58.6664 21.3828 58.6663C11.4845 58.6663 5.33337 52.5288 5.33337 42.6523V23.4401C5.33337 13.5401 11.4845 7.40256 21.3828 7.40256H38.7285C39.8126 7.41544 40.6846 8.29605 40.6846 9.37786C40.6846 9.89961 40.4753 10.3996 40.1033 10.7664C39.7314 11.1331 39.2278 11.3359 38.7049 11.3296H21.3828C13.582 11.3296 9.26914 15.633 9.26914 23.4401V42.6523ZM36.9844 37.5264C36.6542 37.9331 36.1834 38.2016 35.6646 38.2789C35.1483 38.3313 34.6321 38.1793 34.227 37.8557L26.9918 32.1884L20.4872 40.6305C20.177 41.0515 19.7106 41.3309 19.1923 41.406C18.674 41.4812 18.1472 41.3458 17.7298 41.0303C16.8779 40.3638 16.7204 39.1382 17.3763 38.2789L25.0828 28.2613C25.4043 27.846 25.8782 27.5754 26.4 27.5092C26.9217 27.443 27.4484 27.5867 27.8638 27.9086L35.099 33.5758L41.4622 25.463C42.1607 24.8004 43.2388 24.7441 44.0027 25.3304C44.7667 25.9168 44.9887 26.971 44.526 27.8145L36.9844 37.5264ZM54.825 23.4402C53.7447 23.4402 52.8689 24.3141 52.8689 25.392V42.6524C52.7982 50.4595 48.4854 54.7394 40.6846 54.7394H32.813C31.725 54.7521 30.8461 55.629 30.8334 56.7147C30.8463 57.7964 31.7288 58.6665 32.813 58.6665H40.6846C50.5829 58.6665 56.7576 52.5289 56.7576 42.6524V25.392C56.7577 24.3232 55.8962 23.4531 54.825 23.4402Z" fill="url(#paint0_linear_301_2933)"/>
</g>
</g>
<defs>
<filter id="filter0_i_301_2933" x="5.33337" y="5.33334" width="53.3333" height="53.3331" filterUnits="userSpaceOnUse" color-interpolation-filters="sRGB">
<feFlood flood-opacity="0" result="BackgroundImageFix"/>
<feBlend mode="normal" in="SourceGraphic" in2="BackgroundImageFix" result="shape"/>
<feColorMatrix in="SourceAlpha" type="matrix" values="0 0 0 0 0 0 0 0 0 0 0 0 0 0 0 0 0 0 127 0" result="hardAlpha"/>
<feOffset dx="-1.62" dy="1.62"/>
<feComposite in2="hardAlpha" operator="arithmetic" k2="-1" k3="1"/>
<feColorMatrix type="matrix" values="0 0 0 0 0.68 0 0 0 0 0.656 0 0 0 0 0.52 0 0 0 1 0"/>
<feBlend mode="normal" in2="shape" result="effect1_innerShadow_301_2933"/>
</filter>
<linearGradient id="paint0_linear_301_2933" x1="5.33337" y1="58.6665" x2="69.3777" y2="26.9884" gradientUnits="userSpaceOnUse">
<stop stop-color="#ADA785"/>
<stop offset="1" stop-color="#D6D3C2"/>
</linearGradient>
</defs>
</svg>
