<svg width="64" height="64" viewBox="0 0 64 64" fill="none" xmlns="http://www.w3.org/2000/svg">
<g id="Chart">
<g id="Chart_2" filter="url(#filter0_i_301_2973)">
<path id="Chart_3" fill-rule="evenodd" clip-rule="evenodd" d="M58.6666 28.2005C58.6666 29.3275 57.7531 30.241 56.6262 30.241H56.6027C56.0596 30.2411 55.5393 30.0222 55.1597 29.6337C54.78 29.2453 54.5731 28.7201 54.5857 28.1771V22.0088C54.5857 13.8939 50.1061 9.41426 41.9912 9.41426H22.0088C13.8704 9.41426 9.41423 13.8939 9.41423 22.0088V42.0147C9.41423 50.1296 13.8939 54.5858 22.0088 54.5858H41.9912C50.1296 54.5858 54.5857 50.1061 54.5857 42.0147C54.5857 40.8878 55.4993 39.9742 56.6262 39.9742C57.7531 39.9742 58.6666 40.8878 58.6666 42.0147C58.6666 52.2873 52.2873 58.6667 42.0146 58.6667H22.0088C11.7127 58.6667 5.33331 52.2873 5.33331 42.0147V22.0088C5.33331 11.7127 11.7127 5.33334 22.0088 5.33334H41.9912C52.2404 5.33334 58.6666 11.7127 58.6666 22.0088V28.2005ZM18.5611 44.5009V27.5909V27.4267C18.5793 26.8874 18.8129 26.3779 19.2096 26.0121C19.6062 25.6463 20.1329 25.4546 20.6719 25.48C21.2132 25.4984 21.725 25.7312 22.0945 26.1271C22.464 26.523 22.661 27.0496 22.642 27.5909V44.6416C22.6032 45.7685 21.6581 46.6505 20.5312 46.6117C19.4043 46.5728 18.5223 45.6278 18.5611 44.5009ZM30.0534 19.5224V44.5239C30.0534 45.6508 30.9669 46.5643 32.0938 46.5643C33.2207 46.5643 34.1343 45.6508 34.1343 44.5239V19.5224C34.1343 18.3955 33.2207 17.482 32.0938 17.482C30.9669 17.482 30.0534 18.3955 30.0534 19.5224ZM41.358 44.5005V36.5263C41.358 35.3994 42.2716 34.4858 43.3985 34.4858C44.5254 34.4858 45.4389 35.3994 45.4389 36.5263V44.5005C45.4389 45.6274 44.5254 46.541 43.3985 46.541C42.2716 46.541 41.358 45.6274 41.358 44.5005Z" fill="url(#paint0_linear_301_2973)"/>
</g>
</g>
<defs>
<filter id="filter0_i_301_2973" x="5.33331" y="5.33334" width="53.3333" height="53.3333" filterUnits="userSpaceOnUse" color-interpolation-filters="sRGB">
<feFlood flood-opacity="0" result="BackgroundImageFix"/>
<feBlend mode="normal" in="SourceGraphic" in2="BackgroundImageFix" result="shape"/>
<feColorMatrix in="SourceAlpha" type="matrix" values="0 0 0 0 0 0 0 0 0 0 0 0 0 0 0 0 0 0 127 0" result="hardAlpha"/>
<feOffset dx="-1.62" dy="1.62"/>
<feComposite in2="hardAlpha" operator="arithmetic" k2="-1" k3="1"/>
<feColorMatrix type="matrix" values="0 0 0 0 0.68 0 0 0 0 0.656 0 0 0 0 0.52 0 0 0 1 0"/>
<feBlend mode="normal" in2="shape" result="effect1_innerShadow_301_2973"/>
</filter>
<linearGradient id="paint0_linear_301_2973" x1="5.33331" y1="58.6667" x2="69.3779" y2="26.9886" gradientUnits="userSpaceOnUse">
<stop stop-color="#ADA785"/>
<stop offset="1" stop-color="#D6D3C2"/>
</linearGradient>
</defs>
</svg>
