<svg width="141" height="70" viewBox="0 0 141 70" fill="none" xmlns="http://www.w3.org/2000/svg">
<g opacity="0.8">
<circle cx="27.5" cy="35" r="12" fill="#E80B26"/>
<circle cx="43.5" cy="35" r="12" fill="#F59D31"/>
<path d="M35.5 44C37.9551 41.7891 39.5 38.5762 39.5 35C39.5 31.4238 37.9551 28.2109 35.5 26C33.0449 28.2109 31.5 31.4238 31.5 35C31.5 38.5762 33.0449 41.7891 35.5 44Z" fill="#FC6020"/>
</g>
<g opacity="0.8">
<path d="M91.5 24V24.8627L94.6336 25.3593C96.8539 25.7112 98.6434 27.391 99.1607 29.609L102.829 45.3359C102.92 45.7251 103.262 46 103.657 46H108.804C109.144 46 109.451 45.7952 109.585 45.479L118.465 24.6022C118.586 24.3175 118.38 24 118.074 24H113.332C112.989 24 112.68 24.2083 112.547 24.5285L106.599 38.8824L104.226 26.109C103.999 24.8859 102.946 24 101.718 24H91.5Z" fill="white"/>
</g>
</svg>
